<?xml version="1.0" encoding="iso-8859-1"?>
<!-- Generator: Adobe Illustrator 19.0.0, SVG Export Plug-In . SVG Version: 6.00 Build 0)  -->
<svg version="1.1" id="Capa_1" xmlns="http://www.w3.org/2000/svg" xmlns:xlink="http://www.w3.org/1999/xlink" x="0px" y="0px"
	 viewBox="0 0 512 512" style="enable-background:new 0 0 512 512;" xml:space="preserve">
<g>
	<g>
		<path style="fill:#95A5A5;" d="M466.361,95.338C443.841,37.828,388.383-0.009,326.621,0H185.379
			C123.617-0.009,68.159,37.828,45.639,95.338H466.361z"/>
		<rect x="220.69" y="378.227" style="fill:#95A5A5;" width="70.621" height="126.314"/>
	</g>
	<path style="fill:#BDC3C7;" d="M176.552,476.69h150.069c9.751,0,17.655,7.904,17.655,17.655V512H158.897v-17.655
		C158.897,484.594,166.801,476.69,176.552,476.69z"/>
	<polygon style="fill:#2C3E50;" points="291.31,476.69 256,512 220.69,512 256,476.69 	"/>
	<path style="fill:#BDC3C7;" d="M150.069,52.966h211.862C444.812,52.966,512,120.154,512,203.034V256
		c0,82.881-67.188,150.069-150.069,150.069H150.069C67.188,406.069,0,338.881,0,256v-52.966C0,120.154,67.188,52.966,150.069,52.966
		z"/>
	<path style="fill:#2C3E50;" d="M476.69,203.034V256c0.035,36.951-17.787,71.641-47.846,93.131
		c-4.774,3.491-9.822,6.591-15.095,9.269c-16.063,8.129-33.815,12.363-51.818,12.359H150.069
		c-18.003,0.004-35.755-4.23-51.818-12.359c-5.273-2.678-10.321-5.778-15.095-9.269c-30.058-21.49-47.88-56.18-47.846-93.131
		v-52.966c0.06-63.354,51.404-114.698,114.759-114.759h211.862C425.285,88.336,476.629,139.68,476.69,203.034z"/>
	<path style="fill:#E57E25;" d="M432.552,291.31c0.013,9.369-3.703,18.358-10.328,24.982s-15.613,10.341-24.982,10.328H114.759
		c-1.983,0.007-3.963-0.171-5.914-0.53c-15.525-2.721-27.414-15.327-29.22-30.985c-0.088-1.236-0.177-2.56-0.177-3.796
		c-0.013-9.369,3.703-18.358,10.328-24.982c6.625-6.625,15.614-10.341,24.982-10.328h282.483
		c9.366-0.003,18.348,3.717,24.971,10.339C428.835,272.962,432.554,281.945,432.552,291.31z"/>
	<g>
		<g>
			<path style="fill:#D25627;" d="M143.537,256c-0.363,0.538-0.777,1.041-1.236,1.501L86.864,312.85
				c-4.043-5.111-6.553-11.263-7.239-17.743L118.731,256H143.537z"/>
			<path style="fill:#D25627;" d="M203.653,256c-0.363,0.539-0.778,1.041-1.237,1.501l-69.119,69.12h-18.538
				c-1.983,0.007-3.963-0.171-5.914-0.53c0.271-0.343,0.566-0.668,0.881-0.971L178.847,256H203.653z"/>
			<path style="fill:#D25627;" d="M263.768,256c-0.363,0.539-0.777,1.041-1.236,1.501l-69.121,69.12h-24.805
				c0.335-0.559,0.752-1.064,1.236-1.501L239.052,256H263.768z"/>
			<path style="fill:#D25627;" d="M292.546,287.514l-39.018,39.106h-24.806c0.364-0.539,0.778-1.041,1.237-1.501l50.14-50.052
				c1.649-1.653,3.888-2.582,6.223-2.582c2.335,0,4.574,0.929,6.223,2.582c1.692,1.628,2.648,3.875,2.648,6.223
				C295.195,283.639,294.238,285.886,292.546,287.514z"/>
		</g>
		<g>
			<path style="fill:#E64C3C;" d="M209.276,126.173c-1.655-1.656-3.9-2.586-6.241-2.586c-2.341,0-4.586,0.93-6.241,2.586
				l-29.069,29.069l-29.069-29.069c-3.453-3.41-9.012-3.392-12.443,0.039s-3.449,8.99-0.039,12.443l29.069,29.069l-29.069,29.069
				c-2.253,2.225-3.142,5.487-2.328,8.547c0.813,3.06,3.204,5.451,6.264,6.264c3.061,0.813,6.322-0.076,8.547-2.329l29.069-29.069
				l29.069,29.069c3.453,3.41,9.012,3.392,12.443-0.039c3.432-3.432,3.449-8.99,0.039-12.443l-29.069-29.069l29.069-29.069
				c1.656-1.655,2.586-3.9,2.586-6.241C211.862,130.073,210.931,127.828,209.276,126.173z"/>
			<path style="fill:#E64C3C;" d="M356.759,167.724l29.069-29.069c3.41-3.453,3.392-9.012-0.039-12.443s-8.99-3.449-12.443-0.039
				l-29.069,29.069l-29.069-29.069c-3.453-3.41-9.012-3.392-12.443,0.039s-3.449,8.99-0.039,12.443l29.069,29.069l-29.069,29.069
				c-2.253,2.225-3.142,5.487-2.328,8.547c0.813,3.06,3.204,5.451,6.264,6.264c3.061,0.813,6.322-0.076,8.547-2.329l29.069-29.069
				l29.069,29.069c3.453,3.41,9.012,3.392,12.443-0.039c3.432-3.432,3.449-8.99,0.039-12.443L356.759,167.724z"/>
		</g>
	</g>
	<path style="fill:#E6E7E8;" d="M432.552,291.31c0.013,9.369-3.703,18.357-10.328,24.982c-6.625,6.625-15.613,10.341-24.982,10.328
		l-123.586,0V256h123.586c9.366-0.003,18.348,3.717,24.971,10.339C428.835,272.962,432.554,281.945,432.552,291.31z"/>
</g>
<g>
</g>
<g>
</g>
<g>
</g>
<g>
</g>
<g>
</g>
<g>
</g>
<g>
</g>
<g>
</g>
<g>
</g>
<g>
</g>
<g>
</g>
<g>
</g>
<g>
</g>
<g>
</g>
<g>
</g>
</svg>
